<?xml version="1.0" encoding="UTF-8" standalone="no"?>
<svg
   width="32"
   height="32.09"
   viewBox="0 0 32 32.09"
   version="1.1"
   id="svg3"
   sodipodi:docname="logo.svg"
   inkscape:version="1.3.2 (091e20e, 2023-11-25, custom)"
   xmlns:inkscape="http://www.inkscape.org/namespaces/inkscape"
   xmlns:sodipodi="http://sodipodi.sourceforge.net/DTD/sodipodi-0.dtd"
   xmlns:xlink="http://www.w3.org/1999/xlink"
   xmlns="http://www.w3.org/2000/svg"
   xmlns:svg="http://www.w3.org/2000/svg">
  <sodipodi:namedview
     id="namedview3"
     pagecolor="#ffffff"
     bordercolor="#000000"
     borderopacity="0.25"
     inkscape:showpageshadow="2"
     inkscape:pageopacity="0.0"
     inkscape:pagecheckerboard="0"
     inkscape:deskcolor="#d1d1d1"
     showgrid="false"
     inkscape:zoom="16"
     inkscape:cx="25.8125"
     inkscape:cy="21.4375"
     inkscape:window-width="2560"
     inkscape:window-height="1350"
     inkscape:window-x="-9"
     inkscape:window-y="-9"
     inkscape:window-maximized="1"
     inkscape:current-layer="svg3" />
  <defs
     id="defs1">
    <linearGradient
       id="linearGradient3"
       inkscape:swatch="gradient">
      <stop
         style="stop-color:#000000;stop-opacity:1;"
         offset="0"
         id="stop3" />
      <stop
         style="stop-color:#000000;stop-opacity:0;"
         offset="1"
         id="stop4" />
    </linearGradient>
    <style
       id="style1">.a{fill:#fff;}</style>
    <linearGradient
       inkscape:collect="always"
       xlink:href="#linearGradient6"
       id="linearGradient7"
       x1="-0.056496479"
       y1="8.4659222e-09"
       x2="31.830511"
       y2="31.977007"
       gradientUnits="userSpaceOnUse"
       spreadMethod="pad" />
    <linearGradient
       id="linearGradient6"
       inkscape:collect="always">
      <stop
         style="stop-color:#141414;stop-opacity:1;"
         offset="0.02770083"
         id="stop6" />
      <stop
         style="stop-color:#394c75;stop-opacity:1;"
         offset="0.23770082"
         id="stop34" />
      <stop
         style="stop-color:#141414;stop-opacity:1;"
         offset="0.63434905"
         id="stop7" />
    </linearGradient>
  </defs>
  <polygon
     points="17.95,11.82 15.47,11.82 14.92,10.13 18.61,10.13 22,13.4 22,21.96 13.42,21.96 10.01,18.44 10.01,0 8.62,0 8.62,19.02 12.84,23.37 23.39,23.37 23.39,12.79 19.17,8.72 14.47,8.72 13.92,7.03 19.84,7.03 25.05,12.07 25.05,25.06 12.14,25.06 6.95,19.71 6.95,0 0,0 0,22.59 9.22,32.09 32,32.09 32,9.06 22.63,0 11.67,0 11.67,17.75 14.12,20.27 20.33,20.27 20.33,14.12 "
     id="polygon1"
     style="mix-blend-mode:darken;fill:url(#linearGradient7);fill-opacity:1;fill-rule:nonzero"
     inkscape:transform-center-x="-0.22598592"
     inkscape:transform-center-y="-0.33897887"
     transform="translate(0.00296436,0.00354738)" />
  <polygon
     class="a"
     points="19.17,8.72 23.39,12.79 23.39,23.37 12.84,23.37 8.62,19.02 8.62,0 6.95,0 6.95,19.71 12.14,25.06 25.05,25.06 25.05,12.07 19.84,7.03 13.92,7.03 14.47,8.72 "
     id="polygon2"
     style="fill:#ffffff;stroke:#000000;stroke-width:0;stroke-dasharray:none;stroke-dashoffset:0;stroke-opacity:1;paint-order:markers fill stroke"
     transform="translate(0.00296436,0.00354738)" />
  <path
     d="M -9.4214e-4,0.00474938 0.00296411,22.597297 9.2197612,32.095345 H 32.004917 V 9.0621414 L 22.639683,0.00354788 11.677066,0.00173838 11.659322,2.9722974 h 9.954947 L 29.10841,10.218391 V 29.054328 H 10.372106 L 2.8779644,21.310188 V 0.00474938 Z"
     style="opacity:0.4;fill:#ffffff;fill-opacity:1;stroke:#000000;stroke-width:0;paint-order:markers fill stroke"
     id="path2"
     sodipodi:nodetypes="ccccccccccccccc" />
  <polygon
     class="a"
     points="17.95,11.82 20.33,14.12 20.33,20.27 14.12,20.27 11.67,17.75 11.67,0 10.01,0 10.01,18.44 13.42,21.96 22,21.96 22,13.4 18.61,10.13 14.92,10.13 15.47,11.82 "
     id="polygon3"
     style="fill:#ffffff;stroke:#000000;stroke-width:0;stroke-dasharray:none;stroke-dashoffset:0;stroke-opacity:1;paint-order:markers fill stroke"
     transform="translate(0.00296436,0.00354738)" />
</svg>
